<svg xmlns="http://www.w3.org/2000/svg" xmlns:svg="http://www.w3.org/2000/svg" xmlns:xlink="http://www.w3.org/1999/xlink" version="1.0" height="614pt" width="646.0015000000001pt" viewBox="422.3985 838 654.0015000000001 620" ><defs><style type="text/css">
            @font-face {
                font-family: 'noto_regular';
                src: url('https://app.creately.com/diagram/assets/fonts/noto/noto-regular.woff') format('woff'),
                     url('https://app.creately.com/diagram/assets/fonts/noto/noto-regular.woff2') format('woff2');
                font-weight: normal;
                font-style: normal;
            }
        p {
            margin: 0;
        }
        </style></defs><defs><style>
            span{ display: inline-block; }
        </style></defs><g id="b99dnr3j98"><g transform="translate(560 865)"><rect x="0" y="0" width="300.00529289245605" height="575.0102818012238" fill="rgba(209,203,182,1)" stroke="#d1cbb6" stroke-width="1.5" stroke-linecap="round" stroke-linejoin="round"/></g><g transform="translate(687.502646446228, 875) rotate(0, 22.5, 0)" width="45" height="18"><text text-decoration="none" x="0.5" fill="rgb(84, 84, 84)" font-size="10pt" font-family="noto_regular"  y="17">System</text><text text-decoration="none" x="44.5" fill="#4b4b4b" font-size="10pt" font-family="noto_regular"  y="17"></text></g><g transform="translate(676.002646446228, 841) rotate(0, 34, 19)" width="68" height="19"><text text-decoration="none" x="2" fill="rgb(53, 133, 179)" font-weight="bold" font-size="12pt" font-family="Lato"  y="17">Sistema</text><text text-decoration="none" x="66" fill="#4b4b4b" font-size="10pt" font-family="noto_regular"  y="17"></text></g></g><g id="e6mae45uoj"><g transform="translate(445 1090)"><ellipse cx="20.3985" cy="10.10075" rx="10.19925" ry="10.10075" fill="rgba(53,133,179,1)" stroke="#3585b3" stroke-width="2" stroke-linecap="round" stroke-linejoin="round"/><path d="M 20.3985,20.2015 L 20.3985,48.483599999999996 L 40.797,80.806 M 20.3985,48.483599999999996 L 0,80.806 M 2.03985,30.30225 L 38.757149999999996,30.30225" fill="none" stroke="#3585b3" stroke-width="2" stroke-linecap="round" stroke-linejoin="round"/><rect x="0" y="0" width="40.797" height="80.806" fill="rgba(255,255,255,0.01)" stroke="rgba(255,255,255,0.01)" stroke-width="2" stroke-linecap="round" stroke-linejoin="round"/></g><g transform="translate(427.3985, 1175.806) rotate(0, 38, 0)" width="76" height="51"><text text-decoration="none" x="1.5" fill="rgb(53, 133, 179)" font-size="10pt" font-family="Lato"  y="14">Prospectiva&#160;</text><text text-decoration="none" x="74.5" fill="rgb(53, 133, 179)" font-size="10pt" font-family="Lato"  y="14"></text><text text-decoration="none" x="7.5" fill="rgb(53, 133, 179)" font-size="10pt" font-family="Lato"  y="36">Estudante</text><text text-decoration="none" x="68.5" fill="#4b4b4b" font-size="10pt" font-family="noto_regular"  y="36"></text></g></g><g id="cyhxgg4hx3"><g transform="translate(955 870)"><path d="M 18.012,6.306 C 18.01199989096548,10.7785400853223 23.91366648948557,13.573877735902542 28.634999877336163,11.33760777070806 C 30.826178415888567,10.29975122646299 32.1760000506031,8.381713160394952 32.176,6.306 C 32.176000109034526,1.8334599146777002 26.27433351051443,-0.9618777359025432 21.55300012266384,1.2743922292919398 C 19.361821584111432,2.31224877353701 18.011999949396902,4.230286839605047 18.012,6.306" fill="rgb(53, 133, 179)" stroke="rgb(53, 133, 179)" stroke-width="2" vector-effect="non-scaling-stroke" stroke-dasharray=""/><path d="M 8.744,17.991 C 8.744,17.991 26.087,6.301 42.598,18.368 C 42.598,18.368 43.848,20.883 44.123,22.264999999999997 L 50.507999999999996,44.260999999999996 C 50.507999999999996,44.260999999999996 48.077999999999996,51.489999999999995 42.87499999999999,45.519999999999996 L 37.428,26.79 C 37.428,26.79 36.943999999999996,26.233999999999998 36.5,26.31 C 35.609,26.462999999999997 34.271,27.081 34.271,29.43 L 34.271,86.369 L 34.271,88.256 C 34.271,88.256 31.324,92.969 28.306,88.507 L 28.306,61.985 L 23.034,61.985 L 23.034,87.863 C 23.034,87.863 21.901999999999997,90.602 19.622999999999998,90.497 C 17.346999999999998,90.393 16.235,88.256 16.235,88.256 L 16.235,28.801 C 16.235,28.801 15.959,24.778999999999996 13.462,26.79 C 13.462,26.79 8.049,47.027 6.2459999999999996,47.405 C 1.2499999999999991,51.113 0.5069999999999997,45.278 0.5069999999999997,45.278 C 0.5069999999999997,45.278 7.357,18.368 8.744,17.991 Z" fill="rgb(53, 133, 179)" stroke="rgb(53, 133, 179)" stroke-width="2" vector-effect="non-scaling-stroke" stroke-dasharray=""/></g><g transform="translate(934.0500000000001, 971) rotate(0, 46.5, 0)" width="93" height="37"><text text-decoration="none" x="9" fill="#3585b3" font-size="11pt" font-family="Lato"  y="16">Admiss&#xF5;es</text><text text-decoration="none" x="84" fill="#3585b3" font-size="11pt" font-family="Lato"  y="16"></text><text text-decoration="none" x="0" fill="#3585b3" font-size="11pt" font-family="Lato"  y="38">Coordenador&#160;</text><text text-decoration="none" x="95" fill="#4b4b4b" font-size="10pt" font-family="noto_regular"  y="38"></text></g></g><g id="8jp6ahqhvb"><g transform="translate(955 1030)"><path d="M 18.012,6.306 C 18.01199989096548,10.7785400853223 23.91366648948557,13.573877735902542 28.634999877336163,11.33760777070806 C 30.826178415888567,10.29975122646299 32.1760000506031,8.381713160394952 32.176,6.306 C 32.176000109034526,1.8334599146777002 26.27433351051443,-0.9618777359025432 21.55300012266384,1.2743922292919398 C 19.361821584111432,2.31224877353701 18.011999949396902,4.230286839605047 18.012,6.306" fill="rgb(53, 133, 179)" stroke="rgb(53, 133, 179)" stroke-width="2" vector-effect="non-scaling-stroke" stroke-dasharray=""/><path d="M 8.744,17.991 C 8.744,17.991 26.087,6.301 42.598,18.368 C 42.598,18.368 43.848,20.883 44.123,22.264999999999997 L 50.507999999999996,44.260999999999996 C 50.507999999999996,44.260999999999996 48.077999999999996,51.489999999999995 42.87499999999999,45.519999999999996 L 37.428,26.79 C 37.428,26.79 36.943999999999996,26.233999999999998 36.5,26.31 C 35.609,26.462999999999997 34.271,27.081 34.271,29.43 L 34.271,86.369 L 34.271,88.256 C 34.271,88.256 31.324,92.969 28.306,88.507 L 28.306,61.985 L 23.034,61.985 L 23.034,87.863 C 23.034,87.863 21.901999999999997,90.602 19.622999999999998,90.497 C 17.346999999999998,90.393 16.235,88.256 16.235,88.256 L 16.235,28.801 C 16.235,28.801 15.959,24.778999999999996 13.462,26.79 C 13.462,26.79 8.049,47.027 6.2459999999999996,47.405 C 1.2499999999999991,51.113 0.5069999999999997,45.278 0.5069999999999997,45.278 C 0.5069999999999997,45.278 7.357,18.368 8.744,17.991 Z" fill="rgb(53, 133, 179)" stroke="rgb(53, 133, 179)" stroke-width="2" vector-effect="non-scaling-stroke" stroke-dasharray=""/></g><g transform="translate(956.95, 1131) rotate(0, 0, 0)" width="61" height="19"><text text-decoration="none" x="0" fill="#3585b3" font-size="11pt" font-family="Lato"  y="17">Caixeiro&#160;</text><text text-decoration="none" x="60" fill="#4b4b4b" font-size="10pt" font-family="noto_regular"  y="17"></text></g></g><g id="1vjueyc2cc"><g transform="translate(955 1180)"><path d="M 18.012,6.306 C 18.01199989096548,10.7785400853223 23.91366648948557,13.573877735902542 28.634999877336163,11.33760777070806 C 30.826178415888567,10.29975122646299 32.1760000506031,8.381713160394952 32.176,6.306 C 32.176000109034526,1.8334599146777002 26.27433351051443,-0.9618777359025432 21.55300012266384,1.2743922292919398 C 19.361821584111432,2.31224877353701 18.011999949396902,4.230286839605047 18.012,6.306" fill="rgb(53, 133, 179)" stroke="rgb(53, 133, 179)" stroke-width="2" vector-effect="non-scaling-stroke" stroke-dasharray=""/><path d="M 8.744,17.991 C 8.744,17.991 26.087,6.301 42.598,18.368 C 42.598,18.368 43.848,20.883 44.123,22.264999999999997 L 50.507999999999996,44.260999999999996 C 50.507999999999996,44.260999999999996 48.077999999999996,51.489999999999995 42.87499999999999,45.519999999999996 L 37.428,26.79 C 37.428,26.79 36.943999999999996,26.233999999999998 36.5,26.31 C 35.609,26.462999999999997 34.271,27.081 34.271,29.43 L 34.271,86.369 L 34.271,88.256 C 34.271,88.256 31.324,92.969 28.306,88.507 L 28.306,61.985 L 23.034,61.985 L 23.034,87.863 C 23.034,87.863 21.901999999999997,90.602 19.622999999999998,90.497 C 17.346999999999998,90.393 16.235,88.256 16.235,88.256 L 16.235,28.801 C 16.235,28.801 15.959,24.778999999999996 13.462,26.79 C 13.462,26.79 8.049,47.027 6.2459999999999996,47.405 C 1.2499999999999991,51.113 0.5069999999999997,45.278 0.5069999999999997,45.278 C 0.5069999999999997,45.278 7.357,18.368 8.744,17.991 Z" fill="rgb(53, 133, 179)" stroke="rgb(53, 133, 179)" stroke-width="2" vector-effect="non-scaling-stroke" stroke-dasharray=""/></g><g transform="translate(914.4, 1281) rotate(0, 0, 0)" width="159" height="19"><text text-decoration="none" x="0" fill="#3585b3" font-size="11pt" font-family="Lato"  y="16">Enfermeira&#160;</text><text text-decoration="none" x="80" fill="#3585b3" font-size="11pt" font-family="Lato"  y="16">Cl&#xED;nica&#160;</text><text text-decoration="none" x="129" fill="#3585b3" font-size="11pt" font-family="Lato"  y="16">/&#160;</text><text text-decoration="none" x="0" fill="#3585b3" font-size="11pt" font-family="Lato"  y="38">M&#xE9;dica&#160;</text><text text-decoration="none" x="54" fill="#4b4b4b" font-size="10pt" font-family="noto_regular"  y="38"></text></g></g><g id="67u89dsc2h"><g transform="translate(955 1335)"><path d="M 18.012,6.306 C 18.01199989096548,10.7785400853223 23.91366648948557,13.573877735902542 28.634999877336163,11.33760777070806 C 30.826178415888567,10.29975122646299 32.1760000506031,8.381713160394952 32.176,6.306 C 32.176000109034526,1.8334599146777002 26.27433351051443,-0.9618777359025432 21.55300012266384,1.2743922292919398 C 19.361821584111432,2.31224877353701 18.011999949396902,4.230286839605047 18.012,6.306" fill="rgb(53, 133, 179)" stroke="rgb(53, 133, 179)" stroke-width="2" vector-effect="non-scaling-stroke" stroke-dasharray=""/><path d="M 8.744,17.991 C 8.744,17.991 26.087,6.301 42.598,18.368 C 42.598,18.368 43.848,20.883 44.123,22.264999999999997 L 50.507999999999996,44.260999999999996 C 50.507999999999996,44.260999999999996 48.077999999999996,51.489999999999995 42.87499999999999,45.519999999999996 L 37.428,26.79 C 37.428,26.79 36.943999999999996,26.233999999999998 36.5,26.31 C 35.609,26.462999999999997 34.271,27.081 34.271,29.43 L 34.271,86.369 L 34.271,88.256 C 34.271,88.256 31.324,92.969 28.306,88.507 L 28.306,61.985 L 23.034,61.985 L 23.034,87.863 C 23.034,87.863 21.901999999999997,90.602 19.622999999999998,90.497 C 17.346999999999998,90.393 16.235,88.256 16.235,88.256 L 16.235,28.801 C 16.235,28.801 15.959,24.778999999999996 13.462,26.79 C 13.462,26.79 8.049,47.027 6.2459999999999996,47.405 C 1.2499999999999991,51.113 0.5069999999999997,45.278 0.5069999999999997,45.278 C 0.5069999999999997,45.278 7.357,18.368 8.744,17.991 Z" fill="rgb(53, 133, 179)" stroke="rgb(53, 133, 179)" stroke-width="2" vector-effect="non-scaling-stroke" stroke-dasharray=""/></g><g transform="translate(933.65, 1436) rotate(0, 0, 0)" width="116" height="19"><text text-decoration="none" x="0" fill="#3585b3" font-size="11pt" font-family="Lato"  y="16">Reitor&#160;</text><text text-decoration="none" x="45" fill="#3585b3" font-size="11pt" font-family="Lato"  y="16">/&#160;</text><text text-decoration="none" x="0" fill="#3585b3" font-size="11pt" font-family="Lato"  y="38">Consultor&#160;</text><text text-decoration="none" x="71" fill="#4b4b4b" font-size="10pt" font-family="noto_regular"  y="38"></text></g></g><g id="1d53xk3f2m"><g transform="translate(650 895)"><ellipse cx="72.4996566772461" cy="30.5" rx="72.4996566772461" ry="30.5" fill="rgba(53,133,179,1)" stroke="#3585b3" stroke-width="2" stroke-linecap="round" stroke-linejoin="round"/></g><g transform="translate(688.4996566772461, 908.5) rotate(0, 34, 17)" width="68" height="34"><text text-decoration="none" x="0" fill="rgb(255, 255, 255)" font-size="9pt" font-family="Lato"  y="13">Take&#160;</text><text text-decoration="none" x="30" fill="rgb(255, 255, 255)" font-size="9pt" font-family="Lato"  y="13">&#x26;&#160;</text><text text-decoration="none" x="42" fill="rgb(255, 255, 255)" font-size="9pt" font-family="Lato"  y="13">Pass</text><text text-decoration="none" x="68" fill="rgb(255, 255, 255)" font-size="9pt" font-family="Lato"  y="13"></text><text text-decoration="none" x="23" fill="rgb(255, 255, 255)" font-size="9pt" font-family="Lato"  y="35">SAT</text><text text-decoration="none" x="45" fill="#4b4b4b" font-size="10pt" font-family="noto_regular"  y="35"></text></g></g><g id="tc5k1tvnyu"><g transform="translate(650 970)"><ellipse cx="72.4996566772461" cy="30.5" rx="72.4996566772461" ry="30.5" fill="rgba(53,133,179,1)" stroke="#3585b3" stroke-width="2" stroke-linecap="round" stroke-linejoin="round"/></g><g transform="translate(671.4996566772461, 983.5) rotate(0, 51, 17)" width="102" height="34"><text text-decoration="none" x="24" fill="rgb(255, 255, 255)" font-size="9pt" font-family="Lato"  y="13">Completo</text><text text-decoration="none" x="78" fill="rgb(255, 255, 255)" font-size="9pt" font-family="Lato"  y="13"></text><text text-decoration="none" x="12" fill="rgb(255, 255, 255)" font-size="9pt" font-family="Lato"  y="31">Formul&#xE1;rio&#160;</text><text text-decoration="none" x="76" fill="rgb(255, 255, 255)" font-size="9pt" font-family="Lato"  y="31">de&#160;</text><text text-decoration="none" x="17.5" fill="rgb(255, 255, 255)" font-size="9pt" font-family="Lato"  y="53">candidatura</text><text text-decoration="none" x="84.5" fill="#4b4b4b" font-size="10pt" font-family="noto_regular"  y="53"></text></g></g><g id="1yeujno0i8"><g transform="translate(645 1050)"><ellipse cx="72.4996566772461" cy="30.5" rx="72.4996566772461" ry="30.5" fill="rgba(53,133,179,1)" stroke="#3585b3" stroke-width="2" stroke-linecap="round" stroke-linejoin="round"/></g><g transform="translate(650.9996566772461, 1063.5) rotate(0, 66.5, 17)" width="133" height="34"><text text-decoration="none" x="4.5" fill="rgb(255, 255, 255)" font-size="9pt" font-family="Lato"  y="13">Pague&#160;</text><text text-decoration="none" x="42.5" fill="rgb(255, 255, 255)" font-size="9pt" font-family="Lato"  y="13">o&#160;</text><text text-decoration="none" x="52.5" fill="rgb(255, 255, 255)" font-size="9pt" font-family="Lato"  y="13">formul&#xE1;rio&#160;</text><text text-decoration="none" x="114.5" fill="rgb(255, 255, 255)" font-size="9pt" font-family="Lato"  y="13">de&#160;</text><text text-decoration="none" x="25" fill="rgb(255, 255, 255)" font-size="9pt" font-family="Lato"  y="31">pedido&#160;</text><text text-decoration="none" x="66" fill="rgb(255, 255, 255)" font-size="9pt" font-family="Lato"  y="31">gr&#xE1;tis&#160;</text><text text-decoration="none" x="101" fill="rgb(255, 255, 255)" font-size="9pt" font-family="Lato"  y="31">e&#160;</text><text text-decoration="none" x="36.5" fill="rgb(255, 255, 255)" font-size="9pt" font-family="Lato"  y="53">submeta-o</text><text text-decoration="none" x="96.5" fill="#4b4b4b" font-size="10pt" font-family="noto_regular"  y="53"></text></g></g><g id="15e1hnkheo"><g transform="translate(645 1125)"><ellipse cx="72.4996566772461" cy="30.5" rx="72.4996566772461" ry="30.5" fill="rgba(53,133,179,1)" stroke="#3585b3" stroke-width="2" stroke-linecap="round" stroke-linejoin="round"/></g><g transform="translate(648.4996566772461, 1138.5) rotate(0, 69, 17)" width="138" height="34"><text text-decoration="none" x="0.5" fill="rgb(255, 255, 255)" font-size="9pt" font-family="Lato"  y="13">Avaliar&#160;</text><text text-decoration="none" x="42.5" fill="rgb(255, 255, 255)" font-size="9pt" font-family="Lato"  y="13">Graus&#160;</text><text text-decoration="none" x="79.5" fill="rgb(255, 255, 255)" font-size="9pt" font-family="Lato"  y="13">de&#160;</text><text text-decoration="none" x="96.5" fill="rgb(255, 255, 255)" font-size="9pt" font-family="Lato"  y="13">Teste&#160;</text><text text-decoration="none" x="130.5" fill="rgb(255, 255, 255)" font-size="9pt" font-family="Lato"  y="13">e&#160;</text><text text-decoration="none" x="4.5" fill="rgb(255, 255, 255)" font-size="9pt" font-family="Lato"  y="35">Aplica&#xE7;&#xE3;o&#160;</text><text text-decoration="none" x="61.5" fill="rgb(255, 255, 255)" font-size="9pt" font-family="Lato"  y="35">de&#160;</text><text text-decoration="none" x="78.5" fill="rgb(255, 255, 255)" font-size="9pt" font-family="Lato"  y="35">Admiss&#xE3;o</text><text text-decoration="none" x="133.5" fill="#4b4b4b" font-size="10pt" font-family="noto_regular"  y="35"></text></g></g><g id="1kpj9g3x59"><g transform="translate(645 1200)"><ellipse cx="72.4996566772461" cy="30.5" rx="72.4996566772461" ry="30.5" fill="rgba(53,133,179,1)" stroke="#3585b3" stroke-width="2" stroke-linecap="round" stroke-linejoin="round"/></g><g transform="translate(666.4996566772461, 1221) rotate(0, 51, 9.5)" width="102" height="19"><text text-decoration="none" x="5" fill="rgb(255, 255, 255)" font-size="9pt" font-family="Lato"  y="17">Checkup&#160;</text><text text-decoration="none" x="56" fill="rgb(255, 255, 255)" font-size="9pt" font-family="Lato"  y="17">m&#xE9;dico</text><text text-decoration="none" x="97" fill="#4b4b4b" font-size="10pt" font-family="noto_regular"  y="17"></text></g></g><g id="2aze0jwmsh"><g transform="translate(645 1280)"><ellipse cx="72.4996566772461" cy="30.5" rx="72.4996566772461" ry="30.5" fill="rgba(53,133,179,1)" stroke="#3585b3" stroke-width="2" stroke-linecap="round" stroke-linejoin="round"/></g><g transform="translate(653.4996566772461, 1293.5) rotate(0, 64, 17)" width="128" height="34"><text text-decoration="none" x="1" fill="rgb(255, 255, 255)" font-size="9pt" font-family="Lato"  y="13">Informa&#xE7;&#xE3;o&#160;</text><text text-decoration="none" x="68" fill="rgb(255, 255, 255)" font-size="9pt" font-family="Lato"  y="13">do&#160;</text><text text-decoration="none" x="85" fill="rgb(255, 255, 255)" font-size="9pt" font-family="Lato"  y="13">Col&#xE9;gio&#160;</text><text text-decoration="none" x="19.5" fill="rgb(255, 255, 255)" font-size="9pt" font-family="Lato"  y="35">/&#160;</text><text text-decoration="none" x="26.5" fill="rgb(255, 255, 255)" font-size="9pt" font-family="Lato"  y="35">Departamento</text><text text-decoration="none" x="108.5" fill="#4b4b4b" font-size="10pt" font-family="noto_regular"  y="35"></text></g></g><g id="1k5b7shkgj"><g transform="translate(645 1360)"><ellipse cx="72.4996566772461" cy="30.5" rx="72.4996566772461" ry="30.5" fill="rgba(53,133,179,1)" stroke="#3585b3" stroke-width="2" stroke-linecap="round" stroke-linejoin="round"/></g><g transform="translate(661.9996566772461, 1366) rotate(0, 55.5, 24.5)" width="111" height="49"><text text-decoration="none" x="28" fill="rgb(255, 255, 255)" font-size="9pt" font-family="Lato"  y="13">Submeter&#160;</text><text text-decoration="none" x="20" fill="rgb(255, 255, 255)" font-size="9pt" font-family="Lato"  y="31">Documentos&#160;</text><text text-decoration="none" x="11" fill="rgb(255, 255, 255)" font-size="9pt" font-family="Lato"  y="49">Solicitados&#160;</text><text text-decoration="none" x="74" fill="rgb(255, 255, 255)" font-size="9pt" font-family="Lato"  y="49">para&#160;</text><text text-decoration="none" x="28" fill="rgb(255, 255, 255)" font-size="9pt" font-family="Lato"  y="71">Admiss&#xE3;o</text><text text-decoration="none" x="83" fill="#4b4b4b" font-size="10pt" font-family="noto_regular"  y="71"></text></g></g><g id="55k4jsvslp"><g><path d="M 485,1120 L 660,940" fill="none" stroke="#5da5b7" stroke-width="1.5" stroke-linecap="round" stroke-linejoin="round"/></g></g><g id="2ifc1f2a3q"><g><path d="M 485,1120 L 650,1000" fill="none" stroke="#5da5b7" stroke-width="1.5" stroke-linecap="round" stroke-linejoin="round"/></g></g><g id="15k5qf4hhk"><g><path d="M 485,1120 L 645,1080" fill="none" stroke="#5da5b7" stroke-width="1.5" stroke-linecap="round" stroke-linejoin="round"/></g></g><g id="1x4o1y2m1y"><g><path d="M 485,1120 L 645,1230" fill="none" stroke="#5da5b7" stroke-width="1.5" stroke-linecap="round" stroke-linejoin="round"/></g></g><g id="1qnvgumagd"><g><path d="M 485,1120 L 655,1295" fill="none" stroke="#5da5b7" stroke-width="1.5" stroke-linecap="round" stroke-linejoin="round"/></g></g><g id="5j0xdcrwz4"><g><path d="M 485,1120 L 655,1375" fill="none" stroke="#5da5b7" stroke-width="1.5" stroke-linecap="round" stroke-linejoin="round"/></g></g><g id="3rk8rl4nx2"><g><path d="M 955,1380 L 790,1310" fill="none" stroke="#5da5b7" stroke-width="1.5" stroke-linecap="round" stroke-linejoin="round"/></g></g><g id="7cezdnme64"><g><path d="M 955,915 L 790,1390" fill="none" stroke="#5da5b7" stroke-width="1.5" stroke-linecap="round" stroke-linejoin="round"/></g></g><g id="25a128fhcj"><g><path d="M 955,1225 L 790,1230" fill="none" stroke="#5da5b7" stroke-width="1.5" stroke-linecap="round" stroke-linejoin="round"/></g></g><g id="23zb6niyh7"><g><path d="M 955,915 L 790,1155" fill="none" stroke="#5da5b7" stroke-width="1.5" stroke-linecap="round" stroke-linejoin="round"/></g></g><g id="180vrufw02"><g><path d="M 955,1075 L 790,1080" fill="none" stroke="#5da5b7" stroke-width="1.5" stroke-linecap="round" stroke-linejoin="round"/></g></g><g id="119thvu4qa"><g><path d="M 955,915 L 780,1065" fill="none" stroke="#5da5b7" stroke-width="1.5" stroke-linecap="round" stroke-linejoin="round"/></g></g></svg>